<?xml version="1.0" encoding="utf-8"?>
<!-- Generator: Adobe Illustrator 16.0.0, SVG Export Plug-In . SVG Version: 6.00 Build 0)  -->
<!DOCTYPE svg PUBLIC "-//W3C//DTD SVG 1.1//EN" "http://www.w3.org/Graphics/SVG/1.1/DTD/svg11.dtd">
<svg version="1.1" id="Layer_1" xmlns="http://www.w3.org/2000/svg" xmlns:xlink="http://www.w3.org/1999/xlink" x="0px" y="0px"
	 width="189.333px" height="243.334px" viewBox="0 0 189.333 243.334" enable-background="new 0 0 189.333 243.334"
	 xml:space="preserve">
<g>
	<path fill="#006699" stroke="#0066FF" stroke-width="2" d="M61.447,191.442c0,0-36.639-43.333-45.714-61.333
		c-9.075-18-12.101-36-12.101-43.667s1.26-23.419,5.294-33.169s14.37-25.75,21.428-31.25s17.143-11.5,27.983-14.5
		c10.84-3,20.167-4.75,35.545-4.5s21.681,1,34.79,4.5s23.445,11,33.781,21.25s15.882,23.25,19.16,37.75s3.025,18.75,0,34
		c-3.025,15.25-4.286,16.25-8.824,26.75c-4.538,10.5-37.058,52.588-47.898,64.169"/>
	<path fill="#FFFFFF" stroke="#0099FF" stroke-width="2" d="M65.683,204.954c0,0-36.334-43.333-45.334-61.333s-12-36-12-43.667
		s1.25-23.419,5.25-33.169s14.25-25.75,21.25-31.25s17-11.5,27.75-14.5s20-4.75,35.25-4.5s21.5,1,34.5,4.5s23.25,11,33.5,21.25
		s15.75,23.25,19,37.75s3,18.75,0,34s-4.25,16.25-8.75,26.75s-36.75,52.588-47.5,64.169"/>
	<line fill="none" stroke="#0066FF" stroke-width="2" x1="71.007" y1="211.079" x2="129.632" y2="211.204"/>
	<line fill="none" stroke="#0099FF" stroke-width="2" x1="73.257" y1="214.499" x2="128.083" y2="214.624"/>
	<line fill="none" stroke="#0066FF" stroke-width="2" x1="75.882" y1="219.079" x2="125.608" y2="219.204"/>
	<line fill="none" stroke="#0099FF" stroke-width="2" x1="79.132" y1="222.499" x2="122.257" y2="222.624"/>
	<line fill="none" stroke="#0066FF" stroke-width="2" x1="83.053" y1="228.079" x2="118.983" y2="228.204"/>
	<line fill="none" stroke="#0099FF" stroke-width="2" x1="85.401" y1="231.499" x2="116.562" y2="231.624"/>
	<line fill="none" stroke="#0066FF" stroke-width="2" x1="93.001" y1="236.079" x2="110.602" y2="236.204"/>
	<line fill="none" stroke="#0099FF" stroke-width="2" x1="94.151" y1="239.499" x2="109.416" y2="239.624"/>
	<g>
		<path fill-rule="evenodd" clip-rule="evenodd" fill="#188FBF" d="M99.776,47.097c2.776,3.136,7.797,3.035,9.905,7.136
			c-6.939,5.1-9.425,12.865-11.698,20.674c-5.357,18.414-10.578,36.868-15.853,55.306c-1.374,4.803-1.484,4.833-5.661,1.988
			c-12.383-8.434-15.785-20.826-14.455-35.033c0.74-7.934,2.882-15.608,5.762-23.056C73.586,59.093,82.737,48.256,99.776,47.097z"/>
		<path fill-rule="evenodd" clip-rule="evenodd" fill="#188FBF" d="M103.398,137.543c-3.668,0-7.337,0-11.512,0
			c2.396-8.571,4.696-16.863,7.031-25.144c3.88-13.757,7.698-27.535,11.728-41.246c1.232-4.193,2.572-8.616,7.605-9.77
			c1.689-0.039,2.704,1.146,3.608,2.329c6.119,8.001,9.7,17.231,9.678,27.335c-0.036,16.874-6.851,30.461-20.31,40.314
			C108.557,133.316,105.143,134.316,103.398,137.543z"/>
		<path fill-rule="evenodd" clip-rule="evenodd" fill="#67BAE6" d="M98.219,159.348c-12.389-0.038-12.166,0.018-9.387-11.492
			c1.025-4.243,2.638-5.06,6.682-4.353c29.281,5.12,57.471-17.278,60.174-47.598c0.265-2.967,1.282-5.916,0.185-8.924
			c-0.304-0.832-0.606-2.005,0.424-2.324c1.362-0.422,1.612,0.891,1.879,1.911c2.239,8.576,2.595,17.214,0.546,25.867
			c-5.906,24.925-26.615,43.237-51.926,46.11C103.723,158.895,100.686,159.513,98.219,159.348z"/>
		<path fill-rule="evenodd" clip-rule="evenodd" fill="#67BAE6" d="M53.134,61.923c-4.925,8.322-8.011,17.2-9.329,26.934
			c-2.63,19.419,8.425,37.703,23.9,46.037c2.732,1.47,5.486,2.985,8.388,4.014c2.647,0.939,3.024,2.442,2.142,4.781
			c-0.053,0.14-0.105,0.281-0.15,0.425c-4.075,12.953-0.938,13.547-13.932,5.81c-18.805-11.198-29.137-28.356-28.67-50.92
			c0.306-14.75,5.588-27.822,16.945-37.712C52.666,61.504,52.9,61.713,53.134,61.923z"/>
		<path fill-rule="evenodd" clip-rule="evenodd" fill="#0674A4" d="M103.398,137.543c1.745-3.227,5.159-4.227,7.829-6.181
			c13.459-9.853,20.273-23.441,20.31-40.314c0.022-10.104-3.559-19.333-9.678-27.335c-0.904-1.184-1.919-2.368-3.608-2.329
			c4.713-1.682,9.674,0.03,13.479,4.692c4.57,5.603,6.564,12.425,6.713,19.431c0.347,16.359-3.6,31.418-15.292,43.251
			C117.737,134.236,110.968,137.001,103.398,137.543z"/>
		<path fill-rule="evenodd" clip-rule="evenodd" fill="#67BAE6" d="M54.122,60.237c-0.329,0.562-0.66,1.123-0.988,1.685
			c-0.233-0.208-0.468-0.418-0.705-0.632c0.41-0.511,0.822-1.019,1.234-1.526C53.813,59.924,53.967,60.082,54.122,60.237z"/>
		<path fill-rule="evenodd" clip-rule="evenodd" fill="#67BAE6" d="M53.663,59.764c0.187-0.18,0.5-0.541,0.541-0.51
			c0.48,0.344,0.247,0.675-0.084,0.979C53.967,60.082,53.813,59.924,53.663,59.764z"/>
		<path fill="#0674A4" d="M99.776,47.097v-3.446c0,0-6.441-1.813-13.227,0c-6.784,1.813,2.346-1.023,2.346-1.023
			s23.221-3.894,40.525,7.256c17.306,11.149,4.229,2.782,4.229,2.782s-12.783-6.599-23.5,1.236"/>
	</g>
</g>
</svg>
