<?xml version="1.0" encoding="utf-8"?>
<!-- Generator: Adobe Illustrator 16.0.0, SVG Export Plug-In . SVG Version: 6.00 Build 0)  -->
<!DOCTYPE svg PUBLIC "-//W3C//DTD SVG 1.1//EN" "http://www.w3.org/Graphics/SVG/1.1/DTD/svg11.dtd">
<svg version="1.1" id="Layer_1" xmlns="http://www.w3.org/2000/svg" xmlns:xlink="http://www.w3.org/1999/xlink" x="0px" y="0px"
	 width="269px" height="97.407px" viewBox="0 0 269 97.407" enable-background="new 0 0 269 97.407" xml:space="preserve">
<ellipse fill="#FFFFFF" stroke="#FFFFFF" stroke-miterlimit="10" cx="52.803" cy="48.703" rx="52.803" ry="48.704"/>
<rect x="109.039" y="20.736" fill="#FFFFFF" stroke="#FFFFFF" stroke-miterlimit="10" width="152.461" height="67.764"/>
<g>
	<path fill-rule="evenodd" clip-rule="evenodd" fill="#188FBF" d="M54.502,4.254c2.353,2.602,6.608,2.518,8.395,5.92
		c-5.881,4.231-7.988,10.674-9.914,17.152c-4.541,15.277-8.965,30.587-13.436,45.885c-1.164,3.984-1.258,4.01-4.798,1.649
		c-10.495-6.997-13.378-17.278-12.251-29.065c0.628-6.582,2.443-12.949,4.884-19.128C32.306,14.207,40.062,5.216,54.502,4.254z"/>
	<path fill-rule="evenodd" clip-rule="evenodd" fill="#188FBF" d="M57.572,79.293c-3.109,0-6.218,0-9.756,0
		c2.03-7.111,3.979-13.99,5.959-20.86c3.289-11.414,6.524-22.845,9.939-34.22c1.044-3.479,2.18-7.148,6.446-8.105
		c1.431-0.032,2.291,0.95,3.058,1.932c5.186,6.639,8.221,14.296,8.202,22.679c-0.03,13.999-5.806,25.272-17.212,33.447
		C61.945,75.786,59.051,76.616,57.572,79.293z"/>
	<path fill-rule="evenodd" clip-rule="evenodd" fill="#67BAE6" d="M53.183,97.384c-10.5-0.031-10.311,0.015-7.956-9.534
		c0.868-3.521,2.235-4.198,5.662-3.612c24.817,4.248,48.708-14.334,50.999-39.489c0.224-2.461,1.086-4.908,0.156-7.404
		c-0.257-0.69-0.514-1.663,0.359-1.928c1.154-0.351,1.367,0.739,1.592,1.585c1.898,7.115,2.2,14.282,0.462,21.46
		c-5.005,20.679-22.557,35.872-44.008,38.255C57.848,97.008,55.273,97.521,53.183,97.384z"/>
	<path fill-rule="evenodd" clip-rule="evenodd" fill="#67BAE6" d="M14.972,16.555c-4.173,6.904-6.79,14.271-7.907,22.346
		c-2.229,16.111,7.141,31.28,20.257,38.194c2.315,1.22,4.649,2.477,7.108,3.33c2.244,0.779,2.563,2.026,1.815,3.967
		c-0.045,0.116-0.089,0.233-0.127,0.353c-3.455,10.746-0.795,11.239-11.808,4.82C8.373,80.273-0.383,66.038,0.013,47.318
		C0.271,35.08,4.748,24.235,14.374,16.029C14.575,16.207,14.773,16.381,14.972,16.555z"/>
	<path fill-rule="evenodd" clip-rule="evenodd" fill="#0674A4" d="M57.572,79.293c1.479-2.677,4.373-3.507,6.636-5.128
		C75.614,65.99,81.39,54.717,81.42,40.718c0.019-8.382-3.016-16.04-8.202-22.679c-0.767-0.982-1.626-1.964-3.058-1.932
		c3.994-1.396,8.199,0.025,11.423,3.893c3.873,4.648,5.563,10.309,5.689,16.121c0.294,13.573-3.051,26.066-12.96,35.883
		C69.724,76.549,63.988,78.843,57.572,79.293z"/>
	<path fill-rule="evenodd" clip-rule="evenodd" fill="#67BAE6" d="M15.81,15.156c-0.279,0.466-0.56,0.932-0.838,1.398
		c-0.198-0.173-0.396-0.347-0.598-0.524c0.348-0.424,0.697-0.845,1.046-1.266C15.548,14.896,15.678,15.027,15.81,15.156z"/>
	<path fill-rule="evenodd" clip-rule="evenodd" fill="#67BAE6" d="M15.42,14.764c0.158-0.149,0.424-0.449,0.459-0.423
		c0.406,0.285,0.209,0.56-0.072,0.813C15.678,15.027,15.548,14.896,15.42,14.764z"/>
	<path fill="#0674A4" d="M54.502,4.254V1.395c0,0-5.459-1.504-11.209,0s1.988-0.849,1.988-0.849s19.679-3.23,34.346,6.02
		s3.583,2.308,3.583,2.308S72.376,3.399,63.293,9.899"/>
</g>
<polyline fill-rule="evenodd" clip-rule="evenodd" fill="#67BAE6" points="9.441,20.981 17.313,12.624 20.313,10.175 22.626,8.874 
	19.626,12.062 15.092,17.187 11.587,23.009 8.277,32.599 "/>
<path fill="#67BAE6" d="M103.584,35.646l-0.958-3.042l-1.417-3.208l-1.333-2.625l-0.708-1.375l0.667,2.458l0.545,1.787l0.705,2.171
	l0.292,1.958l0.5,2.417c0,0,0.444,3.01,0.118,7.672"/>
<text transform="matrix(1.0033 0 0 1 109.0386 50.1816)" font-family="'MyriadPro-Regular'" font-size="38">InnovaTE</text>
<text transform="matrix(1 0 0 1 112.126 61.0615)"><tspan x="0" y="0" font-family="'MyriadPro-Regular'" font-size="11">Programa de emprendimiento </tspan><tspan x="0" y="13.2" font-family="'MyriadPro-Regular'" font-size="11">de base tecnológica</tspan></text>
<path d="M215.251,66.687c0,0,0,4.5,0,8.875s2.875,5.25,6.75,5.25s6.75-0.75,6.875-3.375s0-10.75,0-10.75h3.5v17c0,0-5,0-12.125,0
	s-7.5-4.5-7.625-6.25s0-10.75,0-10.75"/>
<path d="M250.57,83.687c0,0,0-4.5,0-8.875s-2.875-5.25-6.75-5.25s-6.75,0.75-6.875,3.375s0,10.75,0,10.75h-3.5v-17c0,0,5,0,12.125,0
	s7.5,4.5,7.625,6.25s0,10.75,0,10.75"/>
</svg>
